<?xml version="1.0" encoding="utf-8"?>
<!-- generated at drububu.com  -->
<!DOCTYPE svg PUBLIC "-//W3C//DTD SVG 1.1//EN" "http://www.w3.org/Graphics/SVG/1.1/DTD/svg11.dtd">
<svg version="1.1" preserveAspectRatio="xMinYMin meet" xmlns="http://www.w3.org/2000/svg" xmlns:xlink="http://www.w3.org/1999/xlink" x="0px" y="0px" width="200px" height="28px" viewBox="0 0 200 28">
<path d="M0 0h10v2h-2v2h-4v2h-2v2h-2z" fill="rgba(0,0,0,0)"/>
<path d="M10 0h12v2h-2v2h-2v-2h-2v2h-2v-2h-2v2h-2v2h-2v2h-2v2h-2v-2h-2v-2h2v-2
	h4v-2h2z" fill="rgb(164,228,252)"/>
<path d="M22 0h20v2h-4v2h-4v2h-6v-2h-2v-2h-4z" fill="rgba(0,0,0,0)"/>
<path d="M42 0h12v2h-2v2h-2v-2h-2v2h-2v-2h-2v2h-2v2h-2v2h-2v2h-2v-2h-2v2h-2v2
	h-2v-4h-2v-2h6v-2h4v-2h4z" fill="rgb(164,228,252)"/>
<path d="M54 0h116v2h-4v2h-4v2h-6v2h-4v2h-10v-2h-2v2h-2v4h-12v2h-2v2h-2v8h-8v-2
	h-2v-2h-2v-2h2v-2h-2v-2h-2v2h-14v-2h-2v-2h-2v-2h-2v2h-10v-2h-2v-2h-2v-2h-10v-2
	h-4v-2h-2v-2h-4z" fill="rgba(0,0,0,0)"/>
<path d="M170 0h10v2h-2v2h-2v-2h-2v2h-2v-2h-2z" fill="rgb(164,228,252)"/>
<path d="M180 0h20v8h-8v-2h-6v-2h-2v-2h-4z" fill="rgba(0,0,0,0)"/>
<path d="M12 2h2v2h-2z" fill="rgb(245,245,245)"/>
<path d="M16 2h2v2h2v-2h2v2h4v2h2v2h2v4h-2v-2h-2v-2h-2v2h2v2h-2v2h-2v2h2v2h2v2
	h-2v2h2v2h2v2h-2v2h-2v-2h-2v2h-2v-2h-2v-2h-2v-2h-2v-2h2v-2h-2v-2h2v-2h-2v-2h-2
	v-2h2v-2h-2v-2h2v-2h2z" fill="rgb(245,245,245)"/>
<path d="M22 2h4v2h-4z" fill="rgb(164,228,252)"/>
<path d="M44 2h2v2h-2z" fill="rgb(245,245,245)"/>
<path d="M48 2h2v2h2v-2h2v2h4v2h2v2h2v4h-2v-2h-2v-2h-2v2h2v2h-2v2h-2v2h2v2h2v2
	h-2v2h-2v2h-2v-2h-2v-2h-2v-2h2v-2h2v-2h-2v2h-2v-2h-2v-2h-2v-2h2v-2h-2v-2h2v-2h2z" fill="rgb(245,245,245)"/>
<path d="M54 2h4v2h-4z" fill="rgb(164,228,252)"/>
<path d="M166 2h4v2h-4z" fill="rgb(164,228,252)"/>
<path d="M170 2h2v2h-2z" fill="rgb(245,245,245)"/>
<path d="M174 2h2v2h2v-2h2v2h4v2h2v2h2v4h-2v-2h-2v-2h-2v2h2v2h-2v2h-2v2h2v2h2v2
	h-2v2h2v2h2v-2h2v-2h-2v-2h2v-2h2v-2h2v2h2v-2h-2v-2h-2v-2h4v2h2v2h2v2h-2v2h2v2
	h2v8h-22v-2h-2v-2h-2v-2h-2v-2h2v-2h-2v-2h2v-2h-2v-2h-2v-2h2v-2h-2v-2h2v-2h2z" fill="rgb(245,245,245)"/>
<path d="M180 2h4v2h-4z" fill="rgb(164,228,252)"/>
<path d="M10 4h2v2h-2z" fill="rgb(245,245,245)"/>
<path d="M12 4h2v2h-2z" fill="rgb(164,228,252)"/>
<path d="M26 4h2v2h-2z" fill="rgb(164,228,252)"/>
<path d="M42 4h2v2h-2z" fill="rgb(245,245,245)"/>
<path d="M44 4h2v2h-2z" fill="rgb(164,228,252)"/>
<path d="M58 4h2v2h-2z" fill="rgb(164,228,252)"/>
<path d="M162 4h4v4h-2v-2h-2z" fill="rgb(164,228,252)"/>
<path d="M166 4h4v2h-2v2h-2z" fill="rgb(245,245,245)"/>
<path d="M170 4h2v2h-2z" fill="rgb(164,228,252)"/>
<path d="M184 4h2v2h-2z" fill="rgb(164,228,252)"/>
<path d="M8 6h2v2h-2z" fill="rgb(245,245,245)"/>
<path d="M10 6h2v2h-2z" fill="rgb(164,228,252)"/>
<path d="M40 6h2v2h-2z" fill="rgb(245,245,245)"/>
<path d="M42 6h2v2h-2z" fill="rgb(164,228,252)"/>
<path d="M60 6h4v2h2v2h-2v2h-2v-4h-2z" fill="rgb(164,228,252)"/>
<path d="M156 6h6v6h-2v-2h-2v-2h-2z" fill="rgb(164,228,252)"/>
<path d="M162 6h2v2h2v2h-2v2h2v2h2v2h2v2h-2v2h2v2h2v2h2v2h2v2h-20v-2h-2v-2h2v-2
	h-2v2h-2v-2h-2v2h-2v-2h-2v-2h-2v-2h-2v-2h2v-2h-2v-2h2v-2h2v2h2v-2h2v2h2v2h2v-2
	h2v4h-2v2h-2v2h2v-2h2v2h2v2h2v-2h2v-2h-2v2h-2v-2h-2v-2h2v-4h-2v-2h-2v-2h4v2h2
	v2h2z" fill="rgb(245,245,245)"/>
<path d="M168 6h2v2h-2z" fill="rgb(164,228,252)"/>
<path d="M186 6h6v2h2v2h-4v2h-2v-4h-2z" fill="rgb(164,228,252)"/>
<path d="M0 8h2v2h-2z" fill="rgb(164,228,252)"/>
<path d="M2 8h2v2h-2z" fill="rgb(245,245,245)"/>
<path d="M6 8h2v2h-2z" fill="rgb(245,245,245)"/>
<path d="M8 8h2v2h-2z" fill="rgb(164,228,252)"/>
<path d="M10 8h2v2h-2z" fill="rgb(245,245,245)"/>
<path d="M12 8h2v2h-2z" fill="rgb(164,228,252)"/>
<path d="M24 8h2v2h-2z" fill="rgb(164,228,252)"/>
<path d="M34 8h2v2h-2z" fill="rgb(245,245,245)"/>
<path d="M38 8h2v2h-2z" fill="rgb(245,245,245)"/>
<path d="M40 8h2v2h-2z" fill="rgb(164,228,252)"/>
<path d="M42 8h2v2h-2z" fill="rgb(245,245,245)"/>
<path d="M44 8h2v2h-2z" fill="rgb(164,228,252)"/>
<path d="M56 8h2v2h-2z" fill="rgb(164,228,252)"/>
<path d="M66 8h2v2h-2z" fill="rgb(245,245,245)"/>
<path d="M68 8h2v2h-2z" fill="rgb(164,228,252)"/>
<path d="M70 8h2v2h-2z" fill="rgb(245,245,245)"/>
<path d="M72 8h2v2h-2z" fill="rgb(164,228,252)"/>
<path d="M140 8h2v2h-2z" fill="rgb(164,228,252)"/>
<path d="M152 8h2v2h-2z" fill="rgb(164,228,252)"/>
<path d="M166 8h2v2h-2z" fill="rgb(164,228,252)"/>
<path d="M168 8h2v2h-2z" fill="rgb(245,245,245)"/>
<path d="M170 8h2v2h-2z" fill="rgb(164,228,252)"/>
<path d="M182 8h2v2h-2z" fill="rgb(164,228,252)"/>
<path d="M194 8h2v2h-2z" fill="rgb(245,245,245)"/>
<path d="M196 8h2v2h-2z" fill="rgb(164,228,252)"/>
<path d="M198 8h2v2h-2z" fill="rgb(245,245,245)"/>
<path d="M0 10h2v2h2v-2h2v2h2v-2h2v2h2v2h-2v2h2v2h-2v2h2v2h2v2h2v2h2v2h-18v-6h2
	v-2h2v-2h-2v2h-2z" fill="rgb(245,245,245)"/>
<path d="M2 10h2v2h-2z" fill="rgb(164,228,252)"/>
<path d="M6 10h2v2h-2z" fill="rgb(164,228,252)"/>
<path d="M10 10h2v2h-2z" fill="rgb(164,228,252)"/>
<path d="M26 10h2v2h-2z" fill="rgb(164,228,252)"/>
<path d="M32 10h2v2h-2z" fill="rgb(245,245,245)"/>
<path d="M34 10h2v2h-2z" fill="rgb(164,228,252)"/>
<path d="M36 10h2v2h2v-2h2v2h2v2h2v2h-2v2h2v2h2v2h2v2h-2v2h-2v2h-2v-2h-2v2h-2
	v-2h-2v2h-2v-2h-2v2h-2v-2h-2v-2h2v-2h-2v-2h2v-2h2v2h2v-2h2v-2h-2v2h-2v-2h-2v-2h2
	v-2h2z" fill="rgb(245,245,245)"/>
<path d="M38 10h2v2h-2z" fill="rgb(164,228,252)"/>
<path d="M42 10h2v2h-2z" fill="rgb(164,228,252)"/>
<path d="M58 10h2v2h-2z" fill="rgb(164,228,252)"/>
<path d="M64 10h2v2h-2z" fill="rgb(245,245,245)"/>
<path d="M66 10h2v2h-2z" fill="rgb(164,228,252)"/>
<path d="M68 10h2v2h-2z" fill="rgb(245,245,245)"/>
<path d="M70 10h2v2h-2z" fill="rgb(164,228,252)"/>
<path d="M72 10h2v2h-2z" fill="rgb(245,245,245)"/>
<path d="M74 10h2v2h-2z" fill="rgb(164,228,252)"/>
<path d="M138 10h2v2h-2z" fill="rgb(164,228,252)"/>
<path d="M140 10h2v2h-2z" fill="rgb(245,245,245)"/>
<path d="M142 10h2v2h-2z" fill="rgb(164,228,252)"/>
<path d="M146 10h2v2h-2z" fill="rgb(164,228,252)"/>
<path d="M150 10h2v2h-2z" fill="rgb(164,228,252)"/>
<path d="M152 10h2v2h-2z" fill="rgb(245,245,245)"/>
<path d="M154 10h2v2h-2z" fill="rgb(164,228,252)"/>
<path d="M164 10h2v2h-2z" fill="rgb(164,228,252)"/>
<path d="M166 10h2v2h-2z" fill="rgb(245,245,245)"/>
<path d="M168 10h2v2h-2z" fill="rgb(164,228,252)"/>
<path d="M184 10h2v2h-2z" fill="rgb(164,228,252)"/>
<path d="M194 10h2v2h-2z" fill="rgb(164,228,252)"/>
<path d="M196 10h2v2h-2z" fill="rgb(245,245,245)"/>
<path d="M198 10h2v2h-2z" fill="rgb(164,228,252)"/>
<path d="M12 12h2v2h-2z" fill="rgb(164,228,252)"/>
<path d="M24 12h2v2h-2z" fill="rgb(164,228,252)"/>
<path d="M26 12h2v2h-2z" fill="rgb(245,245,245)"/>
<path d="M28 12h2v2h-2z" fill="rgb(164,228,252)"/>
<path d="M30 12h2v2h-2z" fill="rgb(245,245,245)"/>
<path d="M32 12h2v2h-2z" fill="rgb(164,228,252)"/>
<path d="M44 12h2v2h-2z" fill="rgb(164,228,252)"/>
<path d="M56 12h2v2h-2z" fill="rgb(164,228,252)"/>
<path d="M58 12h2v2h-2z" fill="rgb(245,245,245)"/>
<path d="M60 12h2v2h-2z" fill="rgb(164,228,252)"/>
<path d="M62 12h2v2h-2z" fill="rgb(245,245,245)"/>
<path d="M64 12h2v2h-2z" fill="rgb(164,228,252)"/>
<path d="M66 12h2v2h2v-2h2v2h2v2h2v2h-2v2h2v2h2v2h2v2h2v2h-34v-2h2v-2h2v2h2v-2
	h2v-2h2v2h2v2h2v-2h2v-2h2v-2h2v-2h-2v2h-2v2h-2v-2h-2v-2h2v-2h2v-2h2z" fill="rgb(245,245,245)"/>
<path d="M68 12h2v2h-2z" fill="rgb(164,228,252)"/>
<path d="M72 12h2v2h-2z" fill="rgb(164,228,252)"/>
<path d="M74 12h2v2h-2z" fill="rgb(245,245,245)"/>
<path d="M76 12h2v2h-2z" fill="rgb(164,228,252)"/>
<path d="M88 12h2v2h-2z" fill="rgb(164,228,252)"/>
<path d="M138 12h2v2h-2z" fill="rgb(245,245,245)"/>
<path d="M140 12h2v2h-2z" fill="rgb(164,228,252)"/>
<path d="M152 12h2v2h-2z" fill="rgb(164,228,252)"/>
<path d="M156 12h2v4h-2z" fill="rgb(164,228,252)"/>
<path d="M166 12h2v2h-2z" fill="rgb(164,228,252)"/>
<path d="M168 12h2v2h-2z" fill="rgb(245,245,245)"/>
<path d="M170 12h2v2h-2z" fill="rgb(164,228,252)"/>
<path d="M182 12h2v2h-2z" fill="rgb(164,228,252)"/>
<path d="M184 12h2v2h-2z" fill="rgb(245,245,245)"/>
<path d="M186 12h2v2h-2z" fill="rgb(164,228,252)"/>
<path d="M188 12h2v2h-2z" fill="rgb(245,245,245)"/>
<path d="M190 12h2v2h-2z" fill="rgb(164,228,252)"/>
<path d="M196 12h2v2h-2z" fill="rgb(164,228,252)"/>
<path d="M198 12h2v2h-2z" fill="rgb(245,245,245)"/>
<path d="M10 14h2v2h-2z" fill="rgb(164,228,252)"/>
<path d="M12 14h2v2h-2z" fill="rgb(245,245,245)"/>
<path d="M14 14h2v2h-2z" fill="rgb(164,228,252)"/>
<path d="M18 14h2v2h-2z" fill="rgb(164,228,252)"/>
<path d="M22 14h2v2h-2z" fill="rgb(164,228,252)"/>
<path d="M24 14h2v2h-2z" fill="rgb(245,245,245)"/>
<path d="M26 14h2v2h-2z" fill="rgb(164,228,252)"/>
<path d="M28 14h2v2h-2z" fill="rgb(245,245,245)"/>
<path d="M30 14h2v2h-2z" fill="rgb(164,228,252)"/>
<path d="M46 14h2v2h-2z" fill="rgb(164,228,252)"/>
<path d="M50 14h2v2h-2z" fill="rgb(164,228,252)"/>
<path d="M54 14h2v2h-2z" fill="rgb(164,228,252)"/>
<path d="M56 14h2v2h-2z" fill="rgb(245,245,245)"/>
<path d="M58 14h2v2h-2z" fill="rgb(164,228,252)"/>
<path d="M60 14h2v2h-2z" fill="rgb(245,245,245)"/>
<path d="M62 14h2v2h-2z" fill="rgb(164,228,252)"/>
<path d="M74 14h2v2h-2z" fill="rgb(164,228,252)"/>
<path d="M76 14h2v2h-2z" fill="rgb(245,245,245)"/>
<path d="M78 14h2v2h-2z" fill="rgb(164,228,252)"/>
<path d="M80 14h2v2h-2z" fill="rgb(245,245,245)"/>
<path d="M82 14h2v2h-2z" fill="rgb(164,228,252)"/>
<path d="M84 14h2v2h2v2h2v2h2v2h-2v2h2v2h-2v2h-2v-2h-2v2h-2v-2h-2v-2h-2v-2h-2
	v-2h2v-2h2v-2h2z" fill="rgb(245,245,245)"/>
<path d="M86 14h2v2h-2z" fill="rgb(164,228,252)"/>
<path d="M88 14h2v2h-2z" fill="rgb(245,245,245)"/>
<path d="M90 14h2v2h-2z" fill="rgb(164,228,252)"/>
<path d="M126 14h2v2h-2z" fill="rgb(164,228,252)"/>
<path d="M128 14h2v2h-2z" fill="rgb(245,245,245)"/>
<path d="M130 14h2v2h-2z" fill="rgb(164,228,252)"/>
<path d="M132 14h2v2h2v-2h2v2h2v2h2v2h2v2h2v2h2v2h-2v2h-18v-2h-2v-2h2v-2h-2v-2
	h2v-2h2v-2h2z" fill="rgb(245,245,245)"/>
<path d="M134 14h2v2h-2z" fill="rgb(164,228,252)"/>
<path d="M138 14h2v2h-2z" fill="rgb(164,228,252)"/>
<path d="M140 14h2v2h-2z" fill="rgb(245,245,245)"/>
<path d="M142 14h2v2h-2z" fill="rgb(164,228,252)"/>
<path d="M168 14h2v2h-2z" fill="rgb(164,228,252)"/>
<path d="M170 14h2v2h-2z" fill="rgb(245,245,245)"/>
<path d="M172 14h2v2h-2z" fill="rgb(164,228,252)"/>
<path d="M176 14h2v2h-2z" fill="rgb(164,228,252)"/>
<path d="M180 14h2v2h-2z" fill="rgb(164,228,252)"/>
<path d="M182 14h2v2h-2z" fill="rgb(245,245,245)"/>
<path d="M184 14h2v2h-2z" fill="rgb(164,228,252)"/>
<path d="M186 14h2v2h-2z" fill="rgb(245,245,245)"/>
<path d="M188 14h2v2h-2z" fill="rgb(164,228,252)"/>
<path d="M192 14h2v2h-2z" fill="rgb(164,228,252)"/>
<path d="M198 14h2v2h-2z" fill="rgb(164,228,252)"/>
<path d="M12 16h2v2h-2z" fill="rgb(164,228,252)"/>
<path d="M24 16h2v2h-2z" fill="rgb(164,228,252)"/>
<path d="M26 16h2v2h-2z" fill="rgb(245,245,245)"/>
<path d="M28 16h2v2h-2z" fill="rgb(164,228,252)"/>
<path d="M30 16h2v2h-2z" fill="rgb(245,245,245)"/>
<path d="M32 16h2v2h-2z" fill="rgb(164,228,252)"/>
<path d="M36 16h2v2h-2z" fill="rgb(164,228,252)"/>
<path d="M40 16h2v2h-2z" fill="rgb(164,228,252)"/>
<path d="M44 16h2v2h-2z" fill="rgb(164,228,252)"/>
<path d="M46 16h2v2h-2z" fill="rgb(245,245,245)"/>
<path d="M48 16h2v2h-2z" fill="rgb(164,228,252)"/>
<path d="M56 16h2v2h-2z" fill="rgb(164,228,252)"/>
<path d="M58 16h2v2h-2z" fill="rgb(245,245,245)"/>
<path d="M60 16h2v2h-2z" fill="rgb(164,228,252)"/>
<path d="M76 16h2v2h-2z" fill="rgb(164,228,252)"/>
<path d="M78 16h2v2h-2z" fill="rgb(245,245,245)"/>
<path d="M80 16h2v2h-2z" fill="rgb(164,228,252)"/>
<path d="M88 16h2v2h-2z" fill="rgb(164,228,252)"/>
<path d="M90 16h2v2h-2z" fill="rgb(245,245,245)"/>
<path d="M92 16h2v2h-2z" fill="rgb(164,228,252)"/>
<path d="M108 16h2v2h-2z" fill="rgb(164,228,252)"/>
<path d="M124 16h2v2h-2z" fill="rgb(164,228,252)"/>
<path d="M126 16h2v2h-2z" fill="rgb(245,245,245)"/>
<path d="M128 16h2v2h-2z" fill="rgb(164,228,252)"/>
<path d="M140 16h2v2h-2z" fill="rgb(164,228,252)"/>
<path d="M154 16h2v2h-2z" fill="rgb(164,228,252)"/>
<path d="M170 16h2v2h-2z" fill="rgb(164,228,252)"/>
<path d="M182 16h2v2h-2z" fill="rgb(164,228,252)"/>
<path d="M184 16h2v2h-2z" fill="rgb(245,245,245)"/>
<path d="M186 16h2v2h-2z" fill="rgb(164,228,252)"/>
<path d="M196 16h2v2h-2z" fill="rgb(164,228,252)"/>
<path d="M198 16h2v2h-2z" fill="rgb(245,245,245)"/>
<path d="M2 18h2v2h-2z" fill="rgb(164,228,252)"/>
<path d="M6 18h2v2h-2z" fill="rgb(164,228,252)"/>
<path d="M10 18h2v2h-2z" fill="rgb(164,228,252)"/>
<path d="M12 18h2v2h-2z" fill="rgb(245,245,245)"/>
<path d="M14 18h2v2h-2z" fill="rgb(164,228,252)"/>
<path d="M26 18h2v2h-2z" fill="rgb(164,228,252)"/>
<path d="M28 18h2v2h-2z" fill="rgb(245,245,245)"/>
<path d="M30 18h2v2h-2z" fill="rgb(164,228,252)"/>
<path d="M34 18h2v2h-2z" fill="rgb(164,228,252)"/>
<path d="M46 18h2v2h-2z" fill="rgb(164,228,252)"/>
<path d="M58 18h2v2h-2z" fill="rgb(164,228,252)"/>
<path d="M66 18h2v2h-2z" fill="rgb(164,228,252)"/>
<path d="M70 18h2v2h-2z" fill="rgb(164,228,252)"/>
<path d="M74 18h2v2h-2z" fill="rgb(164,228,252)"/>
<path d="M76 18h2v2h-2z" fill="rgb(245,245,245)"/>
<path d="M78 18h2v2h-2z" fill="rgb(164,228,252)"/>
<path d="M90 18h2v2h-2z" fill="rgb(164,228,252)"/>
<path d="M92 18h2v2h-2z" fill="rgb(245,245,245)"/>
<path d="M94 18h2v2h-2z" fill="rgb(164,228,252)"/>
<path d="M96 18h2v2h-2z" fill="rgb(245,245,245)"/>
<path d="M98 18h2v2h-2z" fill="rgb(164,228,252)"/>
<path d="M100 18h2v2h2v-2h2v2h2v2h2v2h2v2h2v2h-18v-2h-2v-2h2v-2h2v-2h2z" fill="rgb(245,245,245)"/>
<path d="M102 18h2v2h-2z" fill="rgb(164,228,252)"/>
<path d="M106 18h2v2h-2z" fill="rgb(164,228,252)"/>
<path d="M108 18h2v2h-2z" fill="rgb(245,245,245)"/>
<path d="M110 18h2v2h-2z" fill="rgb(164,228,252)"/>
<path d="M122 18h2v2h-2z" fill="rgb(164,228,252)"/>
<path d="M124 18h2v2h-2z" fill="rgb(245,245,245)"/>
<path d="M126 18h2v2h-2z" fill="rgb(164,228,252)"/>
<path d="M142 18h2v2h-2z" fill="rgb(164,228,252)"/>
<path d="M152 18h2v2h-2z" fill="rgb(164,228,252)"/>
<path d="M156 18h2v2h-2z" fill="rgb(164,228,252)"/>
<path d="M160 18h2v2h-2z" fill="rgb(164,228,252)"/>
<path d="M164 18h2v2h-2z" fill="rgb(164,228,252)"/>
<path d="M168 18h2v2h-2z" fill="rgb(164,228,252)"/>
<path d="M170 18h2v2h-2z" fill="rgb(245,245,245)"/>
<path d="M172 18h2v2h-2z" fill="rgb(164,228,252)"/>
<path d="M184 18h2v2h-2z" fill="rgb(164,228,252)"/>
<path d="M198 18h2v2h-2z" fill="rgb(164,228,252)"/>
<path d="M0 20h2v2h-2z" fill="rgb(164,228,252)"/>
<path d="M12 20h2v2h-2z" fill="rgb(164,228,252)"/>
<path d="M24 20h2v2h-2z" fill="rgb(164,228,252)"/>
<path d="M26 20h2v2h-2z" fill="rgb(245,245,245)"/>
<path d="M28 20h2v2h-2z" fill="rgb(164,228,252)"/>
<path d="M48 20h2v2h-2z" fill="rgb(164,228,252)"/>
<path d="M56 20h2v2h-2z" fill="rgb(164,228,252)"/>
<path d="M58 20h2v2h-2z" fill="rgb(245,245,245)"/>
<path d="M60 20h2v2h-2z" fill="rgb(164,228,252)"/>
<path d="M64 20h2v2h-2z" fill="rgb(164,228,252)"/>
<path d="M76 20h2v2h-2z" fill="rgb(164,228,252)"/>
<path d="M92 20h2v2h-2z" fill="rgb(164,228,252)"/>
<path d="M94 20h2v2h-2z" fill="rgb(245,245,245)"/>
<path d="M96 20h2v2h-2z" fill="rgb(164,228,252)"/>
<path d="M108 20h2v2h-2z" fill="rgb(164,228,252)"/>
<path d="M122 20h2v2h-2z" fill="rgb(245,245,245)"/>
<path d="M124 20h2v2h-2z" fill="rgb(164,228,252)"/>
<path d="M144 20h2v2h-2z" fill="rgb(164,228,252)"/>
<path d="M158 20h2v2h-2z" fill="rgb(164,228,252)"/>
<path d="M170 20h2v2h-2z" fill="rgb(164,228,252)"/>
<path d="M182 20h2v2h-2z" fill="rgb(164,228,252)"/>
<path d="M184 20h2v2h-2z" fill="rgb(245,245,245)"/>
<path d="M186 20h2v2h-2z" fill="rgb(164,228,252)"/>
<path d="M14 22h2v2h-2z" fill="rgb(164,228,252)"/>
<path d="M26 22h2v2h-2z" fill="rgb(164,228,252)"/>
<path d="M28 22h2v2h-2z" fill="rgb(245,245,245)"/>
<path d="M30 22h2v2h-2z" fill="rgb(164,228,252)"/>
<path d="M50 22h2v2h-2z" fill="rgb(164,228,252)"/>
<path d="M54 22h2v2h-2z" fill="rgb(164,228,252)"/>
<path d="M58 22h2v2h-2z" fill="rgb(164,228,252)"/>
<path d="M60 22h2v2h-2z" fill="rgb(245,245,245)"/>
<path d="M62 22h2v2h-2z" fill="rgb(164,228,252)"/>
<path d="M78 22h2v2h-2z" fill="rgb(164,228,252)"/>
<path d="M90 22h2v2h-2z" fill="rgb(164,228,252)"/>
<path d="M92 22h2v2h-2z" fill="rgb(245,245,245)"/>
<path d="M94 22h2v2h-2z" fill="rgb(164,228,252)"/>
<path d="M110 22h2v2h-2z" fill="rgb(164,228,252)"/>
<path d="M122 22h2v2h-2z" fill="rgb(164,228,252)"/>
<path d="M124 22h2v2h-2z" fill="rgb(245,245,245)"/>
<path d="M126 22h2v2h-2z" fill="rgb(164,228,252)"/>
<path d="M146 22h2v2h-2z" fill="rgb(164,228,252)"/>
<path d="M150 22h2v2h-2z" fill="rgb(164,228,252)"/>
<path d="M154 22h2v2h-2z" fill="rgb(164,228,252)"/>
<path d="M172 22h2v2h-2z" fill="rgb(164,228,252)"/>
<path d="M184 22h2v2h-2z" fill="rgb(164,228,252)"/>
<path d="M16 24h2v2h-2z" fill="rgb(164,228,252)"/>
<path d="M28 24h2v2h-2z" fill="rgb(164,228,252)"/>
<path d="M48 24h2v2h-2z" fill="rgb(164,228,252)"/>
<path d="M52 24h2v2h-2z" fill="rgb(164,228,252)"/>
<path d="M60 24h2v2h-2z" fill="rgb(164,228,252)"/>
<path d="M80 24h2v2h-2z" fill="rgb(164,228,252)"/>
<path d="M92 24h2v2h-2z" fill="rgb(164,228,252)"/>
<path d="M112 24h2v2h-2z" fill="rgb(164,228,252)"/>
<path d="M122 24h2v2h-2z" fill="rgb(245,245,245)"/>
<path d="M124 24h2v2h-2z" fill="rgb(164,228,252)"/>
<path d="M148 24h2v2h-2z" fill="rgb(164,228,252)"/>
<path d="M150 24h2v2h2v2h-6v-2h2z" fill="rgb(245,245,245)"/>
<path d="M152 24h2v2h-2z" fill="rgb(164,228,252)"/>
<path d="M174 24h2v2h-2z" fill="rgb(164,228,252)"/>
<path d="M18 26h2v2h-2z" fill="rgb(164,228,252)"/>
<path d="M22 26h2v2h-2z" fill="rgb(164,228,252)"/>
<path d="M26 26h2v2h-2z" fill="rgb(164,228,252)"/>
<path d="M28 26h2v2h-2z" fill="rgb(245,245,245)"/>
<path d="M30 26h2v2h-2z" fill="rgb(164,228,252)"/>
<path d="M34 26h2v2h-2z" fill="rgb(164,228,252)"/>
<path d="M38 26h2v2h-2z" fill="rgb(164,228,252)"/>
<path d="M42 26h2v2h-2z" fill="rgb(164,228,252)"/>
<path d="M46 26h2v2h-2z" fill="rgb(164,228,252)"/>
<path d="M82 26h2v2h-2z" fill="rgb(164,228,252)"/>
<path d="M86 26h2v2h-2z" fill="rgb(164,228,252)"/>
<path d="M90 26h2v2h-2z" fill="rgb(164,228,252)"/>
<path d="M92 26h2v2h-2z" fill="rgb(245,245,245)"/>
<path d="M94 26h2v2h-2z" fill="rgb(164,228,252)"/>
<path d="M114 26h2v2h-2z" fill="rgb(164,228,252)"/>
<path d="M116 26h2v2h-2z" fill="rgb(245,245,245)"/>
<path d="M118 26h2v2h-2z" fill="rgb(164,228,252)"/>
<path d="M120 26h2v2h-2z" fill="rgb(245,245,245)"/>
<path d="M122 26h2v2h-2z" fill="rgb(164,228,252)"/>
<path d="M124 26h2v2h-2z" fill="rgb(245,245,245)"/>
<path d="M126 26h2v2h-2z" fill="rgb(164,228,252)"/>
<path d="M146 26h2v2h-2z" fill="rgb(164,228,252)"/>
<path d="M154 26h2v2h-2z" fill="rgb(164,228,252)"/>
<path d="M176 26h2v2h-2z" fill="rgb(164,228,252)"/>
</svg>
